<?xml version="1.0" encoding="utf-8"?>
<svg xmlns="http://www.w3.org/2000/svg" width="470" height="470" viewBox="0 0 470 470">
  <g fill="none" fill-rule="evenodd">
    <path fill="currentcolor"  d="M235.51087,470 C322.223577,470 400.727201,470 471.021739,470 L471.021739,0 C355.43074,0 276.927117,0 235.51087,0 C105.441808,0 -3.69482223e-13,105.213084 -3.69482223e-13,235 C-3.69482223e-13,364.786916 105.441808,470 235.51087,470 Z"/>
    <g filter="url(#unblock-google-with-a-vpn-b)" transform="translate(115.014 114)">
      <rect width="242" height="241" opacity=".2"/>
      <g filter="url(#unblock-google-with-a-vpn-c)" transform="translate(30.25 30.125)">
        <path fill="#000" fill-rule="nonzero" d="M90.365132,2.93431945e-13 C114.763372,2.93431945e-13 135.146229,8.89921973 150.809057,23.3978478 L150.809057,23.3978478 L125.306086,48.1957201 C118.779446,42.0958598 107.333427,34.7965695 90.365132,34.7965695 C66.4687287,34.7965695 46.1869307,50.495317 38.8566607,72.1932829 C37.049358,77.7926913 35.9453183,83.7919097 35.9453183,89.9917224 C35.9453183,96.1908458 37.049358,102.190753 38.9570279,107.790162 C46.1869307,129.488128 66.4687287,145.186186 90.365132,145.186186 C103.819188,145.186186 114.060801,141.486565 121.69148,136.187014 L121.69148,136.187014 L122.211177,135.819292 C133.896624,127.426841 139.176849,115.169074 140.165976,106.989852 L140.165976,106.989852 L90.365132,106.989852 L90.365132,73.5933073 L175.207989,73.5933073 C176.512763,79.1927157 177.115659,84.592219 177.115659,91.9914619 C177.115659,119.388789 167.275515,142.486779 150.206854,158.185526 C135.245904,171.983798 114.763372,179.983445 90.365132,179.983445 C55.0220172,179.983445 24.4986068,159.784767 9.63871669,130.3877 L9.63871669,130.3877 L9.27438749,129.653965 C3.37507421,117.640416 1.81987758e-13,104.200378 1.81987758e-13,89.9917224 C1.81987758e-13,75.4930943 3.51423803,61.7940863 9.63871669,49.5950552 L9.63871669,49.5950552 L10.0892016,48.7159139 C25.109557,19.796049 55.3754483,2.93431945e-13 90.365132,2.93431945e-13 Z"/>
      </g>
    </g>
  </g>
</svg>